<?xml version="1.0" encoding="UTF-8" standalone="no"?>
<svg width="88px" height="88px" viewBox="0 0 88 88" version="1.1" xmlns="http://www.w3.org/2000/svg"
     xmlns:xlink="http://www.w3.org/1999/xlink">
    <defs></defs>
    <g stroke="none" stroke-width="1" fill="none" fill-rule="evenodd">
        <g transform="translate(-545.000000, -4657.000000)">
            <g transform="translate(545.000000, 4657.000000)">
                <path
                    d="M44,88 C68.300529,88 88,68.300529 88,44 C88,19.699471 68.300529,0 44,0 C19.699471,0 0,19.699471 0,44 C0,68.300529 19.699471,88 44,88 Z"
                    fill="#F18825"></path>
                <g transform="translate(25.000000, 27.000000)" fill="#FFFFFF">
                    <g>
                        <path
                            d="M36.5956498,32.4756098 C38.3406079,32.4756098 39.7462687,31.021478 39.7462687,29.3249909 L39.7462687,7.99772479 C39.7462687,6.25276665 38.2921369,4.84710593 36.5956498,4.84710593 L29.6642883,4.84710593 L27.2892064,1.64801602 C26.5621405,0.630123771 25.2534219,0 23.9931744,0 L15.7530943,0 C14.6382599,0 13.2325992,0.630123771 12.4570622,1.64801602 L10.0819803,4.84710593 L3.15061886,4.84710593 C1.45413178,4.84710593 0,6.25276665 0,7.99772479 L0,29.3249909 C0,31.021478 1.45413178,32.4756098 3.15061886,32.4756098 L36.5956498,32.4756098 L36.5956498,32.4756098 Z M11.8269385,8.24008009 L15.510739,3.39297415 L24.2355297,3.39297415 L27.9193302,8.24008009 L36.3532945,8.24008009 L36.3532945,29.0826356 L3.39297415,29.0826356 L3.39297415,8.24008009 L11.8269385,8.24008009 L11.8269385,8.24008009 Z M9.69421187,17.4495814 C9.69421187,23.0722242 14.2504914,27.6285038 19.8731343,27.6285038 C25.4957772,27.6285038 30.0520568,23.0722242 30.0520568,17.4495814 C30.0520568,11.8269385 25.4957772,7.2706589 19.8731343,7.2706589 C14.2504914,7.2706589 9.69421187,11.8269385 9.69421187,17.4495814 L9.69421187,17.4495814 L9.69421187,17.4495814 Z M13.087186,17.4495814 C13.087186,13.6688387 16.0923917,10.6636331 19.8731343,10.6636331 C23.653877,10.6636331 26.6590826,13.6688387 26.6590826,17.4495814 C26.6590826,21.230324 23.653877,24.2355297 19.8731343,24.2355297 C16.0923917,24.2355297 13.087186,21.230324 13.087186,17.4495814 L13.087186,17.4495814 L13.087186,17.4495814 Z M30.5367674,11.8754095 C30.5367674,13.087186 31.5061886,14.0566072 32.7179651,14.0566072 C33.9297415,14.0566072 34.8991627,13.087186 34.8991627,11.8754095 C34.8991627,10.6636331 33.9297415,9.69421187 32.7179651,9.69421187 C31.5061886,9.69421187 30.5367674,10.6636331 30.5367674,11.8754095 L30.5367674,11.8754095 Z"
                        ></path>
                    </g>
                </g>
            </g>
        </g>
    </g>
</svg>
