<svg xmlns="http://www.w3.org/2000/svg" viewBox="0 0 697.25 177.94">
    <defs>
        <style>.cls-1{fill:#1d1d1b;}</style>
    </defs>
    <path class="cls-1"
          d="M130.17,122.38q-6.23,7.24-23.85,16.32-3.67,24.39-16.22,37.72T61.87,189.76q-7.52,0-11.78-3.48a11.75,11.75,0,0,1-4.26-9.63q0-17.07,33.12-33.11,3.46-12.38,6.75-22.26Q79.93,129.62,68.93,136t-20.44,6.42q-15.4,0-25.62-13.34T12.64,95.33A78.27,78.27,0,0,1,24.19,54.49,90.08,90.08,0,0,1,54.54,23.6Q73.33,12,90.93,12q15.77,0,25.62,9t9.85,23.29q0,15.4-11.09,27.14T89.83,83.14q-8.43,0-14-4.13T70.3,68.84a10.49,10.49,0,0,1,2.15-6.51,6.2,6.2,0,0,1,5-2.84q2.75,0,2.75,3.21a5.15,5.15,0,0,0,2.11,4.4,8,8,0,0,0,4.86,1.56q7.33,0,14.07-10A37.87,37.87,0,0,0,108,37.12,17.55,17.55,0,0,0,102.76,24q-5.23-5.09-13.48-5.09-12.38,0-24,11T46.42,58.8q-7.29,17.92-7.29,34.06,0,14.85,6.41,23.61a20.12,20.12,0,0,0,17,8.75q18,0,34.36-25.39l17.22-2.48c2.14-.31,3.21.21,3.21,1.54q0,0.92-2.48,7.88t-6.79,23.29q14.24-8.25,22.06-18.23v10.54ZM76.81,152.81Q53,164.73,53,176.28q0,6.14,5.87,6.14Q70.4,182.42,76.81,152.81Z"
          transform="translate(-12.64 -11.82)"/>
    <path class="cls-1"
          d="M190.76,122.38q-12.47,11.46-21.86,16.91T151,144.75a19.17,19.17,0,0,1-15.81-7.61q-6-7.61-6-20.44,0-19.25,8.34-46.2A294.08,294.08,0,0,1,157.76,20.8L181,12.19a5.82,5.82,0,0,1,1.65-.37q2.66,0,4.35,3.9a26.77,26.77,0,0,1,1.7,10.5,81.07,81.07,0,0,1-8.62,36.21q-8.62,17.51-27,37.4-0.73,9.53-.73,13.11,0,8,2.93,12.65t7.79,4.68q5,0,10.54-3.58t17.05-14.85v10.54ZM155.65,86.53a111.89,111.89,0,0,0,18.88-29q7.24-16.07,7.24-27.62a12.58,12.58,0,0,0-1-5.47q-1-2.06-2.57-2.06-3.39,0-9.85,16.9T155.65,86.53Z"
          transform="translate(-12.64 -11.82)"/>
    <path class="cls-1"
          d="M288.67,122.38q-14.67,13.93-21,18.15t-12.1,4.22q-14.48,0-13.66-25.58-9.17,13.11-16.91,19.34t-16,6.23q-8.07,0-13.71-7.56t-5.64-18.56a49.78,49.78,0,0,1,7.56-26.22,62.16,62.16,0,0,1,19.39-20.17q11.83-7.7,20.9-7.7,11.46,0,16,10.54L272.3,64.72h5.14l-8.08,26.86q-6.26,20.26-6.25,27.78,0,7.88,5.58,7.88,3.58,0,7.88-3.8t12.09-11.6v10.54Zm-67.11,5q9.17,0,17.28-15.63T247,83q0-5.13-2.29-8A7.44,7.44,0,0,0,238.53,72q-9.17,0-17.37,15.58t-8.2,28.69a12.55,12.55,0,0,0,2.43,8A7.56,7.56,0,0,0,221.57,127.42Z"
          transform="translate(-12.64 -11.82)"/>
    <path class="cls-1"
          d="M316.81,68.66Q323.14,67,329.56,66a77,77,0,0,1,7.7-1.05,0.74,0.74,0,0,1,.92.73,6.34,6.34,0,0,1-.73,2.84A24.54,24.54,0,0,0,336,76.54c0,3.16,1.85,7.52,5.51,13s5.49,10.6,5.49,15.31q0,14-13.43,27t-27.82,13a20.59,20.59,0,0,1-11.37-3.3q-5.13-3.3-5.13-7.06,0-2.2,5.09-8.34t7.29-6.14q2.93,0,5.23,7.52t7.88,7.52q5.59,0,10.5-5.18t4.9-11.14q0-5.78-6.23-15.4t-8.25-16.13a244.49,244.49,0,0,1-27,35.11h-2.11v-8.25Q309,90.2,316.81,68.66Z"
          transform="translate(-12.64 -11.82)"/>
    <path class="cls-1"
          d="M453.67,122.38q-14.67,13.93-21,18.15t-12.1,4.22q-14.48,0-13.66-25.58-9.17,13.11-16.91,19.34t-16,6.23q-8.07,0-13.71-7.56t-5.64-18.56a49.78,49.78,0,0,1,7.56-26.22,62.16,62.16,0,0,1,19.39-20.17q11.83-7.7,20.9-7.7,11.46,0,16,10.54L437.3,64.72h5.14l-8.08,26.86q-6.26,20.26-6.25,27.78,0,7.88,5.58,7.88,3.58,0,7.88-3.8t12.09-11.6v10.54Zm-67.11,5q9.17,0,17.28-15.63T412,83q0-5.13-2.29-8A7.44,7.44,0,0,0,403.52,72q-9.17,0-17.37,15.58t-8.2,28.69a12.55,12.55,0,0,0,2.43,8A7.56,7.56,0,0,0,386.56,127.42Z"
          transform="translate(-12.64 -11.82)"/>
    <path class="cls-1"
          d="M551.48,122.38q-12.1,11.46-20.26,16.91t-14.67,5.45A12.64,12.64,0,0,1,505.42,139q-3.9-5.78-3.9-15.68-10.08,11.09-18.06,16.36t-15.58,5.27a13.19,13.19,0,0,1-11.18-5.78q-4.22-5.78-4.22-15.68,0-19.07,12.83-53.72l24.48-4.87q-15.1,43.93-15.13,56.39,0,8.8,6.6,8.8,4.77,0,11.83-7.75t8.8-13.52l12-39.05,25-5Q530.21,92.31,527,103.49t-3.22,15.68q0,8.62,5.87,8.62,4.77,0,14.13-8.71l7.71-7.24v10.54Z"
          transform="translate(-12.64 -11.82)"/>
    <path class="cls-1"
          d="M641.41,122.38a70.77,70.77,0,0,1-27.85,18q-7.61,23.74-19.3,36.58t-24.8,12.83a15.45,15.45,0,0,1-11.56-4.49q-4.4-4.49-4.4-11.83,0-9.81,8.75-17.6t29.75-15l3.94-18.06q-8.8,9.9-15.22,14.53T567.8,141.9q-7.61,0-12.47-7.15t-4.86-18.61q0-18.7,14.25-35.07T595,64.72q8.89,0,15.76,7.52,4.13-1.47,10.73-4.4L628,64.9h2.11A162.89,162.89,0,0,0,624.62,86L616,131.91q12.38-4.68,25.39-20.08v10.54Zm-51.34,26.49q-29.61,10.63-29.61,24.57a9.4,9.4,0,0,0,2.48,6.74,8.33,8.33,0,0,0,6.33,2.61q6.6,0,11.46-8.34T590.08,148.87Zm-7.7-23.47q6.51,0,11.55-7.7t7.84-19.53q2.8-11.83,2.8-16.41a11.3,11.3,0,0,0-2.15-7.1,6.53,6.53,0,0,0-5.36-2.8q-9.72,0-17,13.11a54.59,54.59,0,0,0-7.24,26.68q0,6.33,2.61,10A8.08,8.08,0,0,0,582.38,125.4Z"
          transform="translate(-12.64 -11.82)"/>
    <path class="cls-1"
          d="M709.89,122.38q-11.64,11.46-20.9,16.91a39.53,39.53,0,0,1-20.44,5.45q-12.47,0-20.12-8t-7.65-21q0-19.43,13.48-35.16T684.13,64.9q8.53,0,13.66,4.4a14.48,14.48,0,0,1,5.13,11.55q0,19-40.34,30.8,3.67,17.88,19.16,17.88a22.35,22.35,0,0,0,11.55-3.25q5.5-3.25,16.59-14.44v10.54Zm-48-17q23.47-6.6,23.47-24.39,0-8.8-6.42-8.8-6.05,0-11.55,9.21T661.86,105.42Z"
          transform="translate(-12.64 -11.82)"/>
</svg>
