
<svg
   xmlns="http://www.w3.org/2000/svg"
   width="227px"
   height="60px"
   viewBox="0 0 227 60"
   version="1.1">
  <title>Welt Logo</title>
  <g>
    <path d="m 195.99488,14.035523 -16.55601,0 0,-12.3489713 46.96392,0 0,12.3489713 -16.5152,0 0,44.186425 -13.89271,0 z"></path>
    <path d="m 149.15746,1.6865517 13.89271,0 0,44.1846093 24.16456,0 0,12.350787 -38.05727,0 z"></path>
    <path d="m 139.24834,51.088339 -0.17864,0.16481 c -6.08104,5.590385 -13.45926,8.194207 -23.21921,8.194207 -17.197566,0 -28.752083,-11.783258 -28.752083,-29.320804 0,-17.743673 11.255724,-29.66540832 28.008053,-29.66540832 16.0432,0 26.86139,11.82820732 26.91988,29.43340232 0,1.73573 -0.11743,3.807891 -0.28791,5.077793 l -39.64781,0 0.13512,0.655609 c 1.70252,7.528155 6.71172,11.505851 14.4844,11.505851 5.04366,0 9.83748,-1.793845 13.85962,-5.188121 l 0.17955,-0.151643 8.49903,9.294304 0,0 z m -11.7998,-26.384638 -0.14011,-0.645167 c -1.57739,-7.27027 -5.8371,-11.112666 -12.31804,-11.112666 -6.75888,0 -11.15598,3.843304 -12.71795,11.114937 l -0.13784,0.642896 25.31394,0 0,0 z"></path>
    <path d="M 62.303622,42.362471 51.21339,1.6865517 l -14.976347,0 L 25.146357,42.281201 14.585246,1.6865517 l -14.43861157,0 15.96340557,56.5353963 16.762754,0 10.751994,-36.568827 10.752447,36.568827 16.762754,0 15.961592,-56.5353963 -14.235941,0 z"></path>
  </g>
</svg>
